<svg xmlns="http://www.w3.org/2000/svg" width="48" height="48" viewBox="0 0 48 48"><defs><style>.a{fill:#fff;}.b{fill:#64b5f6;}.c{fill:#eceff1;}.d{fill:#90a4ae;}.e{fill:#1e88e5;}.f{fill:#2196f3;}</style></defs><g transform="translate(-0.109)"><rect class="a" width="48" height="48" rx="5" transform="translate(0.109)"/><g transform="translate(9 9)"><path class="b" d="M0,11.258l14.445,9.193a.938.938,0,0,0,1.11,0L30,11.258,15.563.2a.939.939,0,0,0-1.125,0Z" transform="translate(0 -0.008)"/><path class="c" d="M84.625,0H65.875A1.878,1.878,0,0,0,64,1.875V22.5a.938.938,0,0,0,.938.938H85.563A.938.938,0,0,0,86.5,22.5V1.875A1.877,1.877,0,0,0,84.625,0Z" transform="translate(-60.25)"/><g transform="translate(7.5 3.75)"><path class="d" d="M128.938,65.875h13.125a.938.938,0,0,0,0-1.875H128.938a.938.938,0,0,0,0,1.875Z" transform="translate(-128 -64)"/><path class="d" d="M142.063,128H128.938a.938.938,0,0,0,0,1.875h13.125a.938.938,0,0,0,0-1.875Z" transform="translate(-128 -124.25)"/><path class="d" d="M136.438,192h-7.5a.938.938,0,0,0,0,1.875h7.5a.938.938,0,0,0,0-1.875Z" transform="translate(-128 -184.5)"/></g><path class="e" d="M15.555,201.193a.938.938,0,0,1-1.11,0L0,192v16.875a1.876,1.876,0,0,0,1.875,1.875h26.25A1.876,1.876,0,0,0,30,208.875V192Z" transform="translate(0 -180.75)"/><path class="f" d="M28.125,316.188H1.875A1.854,1.854,0,0,1,0,314.313a.939.939,0,0,1,.382-.756l14.062-9.375a.938.938,0,0,1,1.11,0l14.062,9.375a.939.939,0,0,1,.383.756A1.854,1.854,0,0,1,28.125,316.188Z" transform="translate(0 -286.188)"/></g></g></svg>