<svg xmlns="http://www.w3.org/2000/svg" width="48" height="48" viewBox="0 0 48 48"><defs><style>.a{fill:#fff;}.b{fill:#576574;}.c{fill:#3e4b5a;}.d{fill:#ffbeab;}.e{fill:#f7af9f;}.f{fill:#54a0ff;}.g{fill:#338def;}.h{fill:#ffcdbf;}.i{fill:#ff6b6b;}.j{fill:#fc8686;}.k{fill:#ee5253;}.l{fill:#e4eaf8;}.m{fill:#d8dce5;}.n{fill:#c3c8d1;}</style></defs><g transform="translate(0.242)"><rect class="a" width="48" height="48" rx="5" transform="translate(-0.242)"/><g transform="translate(9.999 5)"><path class="b" d="M167.212,14.434c1.847,1.986,1.871,1.948,1.871,2.2h0V14.215a.478.478,0,0,1,.478-.478h.847a.477.477,0,0,1,.449.32,7.051,7.051,0,0,0-7.022-6.429H163.3a7.051,7.051,0,0,0-7.022,6.429.477.477,0,0,1,.449-.32h.847a.478.478,0,0,1,.478.478V17a.5.5,0,0,1,.541-.5,13.251,13.251,0,0,0,7.976-2.142A.5.5,0,0,1,167.212,14.434Z" transform="translate(-149.261 -7.07)"/><path class="c" d="M158.417,14.66a7.032,7.032,0,0,1,6.22-6.985,7.11,7.11,0,0,0-.8-.047H163.3a7.051,7.051,0,0,0-7.022,6.429.477.477,0,0,1,.449-.32h.847a.478.478,0,0,1,.478.478V17a.5.5,0,0,1,.367-.485Z" transform="translate(-149.26 -7.07)"/><path class="d" d="M216.762,252.808a5.715,5.715,0,0,1-3.109-.878v2.908l3.1,3.821,3.1-3.821v-2.99A5.411,5.411,0,0,1,216.762,252.808Z" transform="translate(-202.441 -233.424)"/><path class="e" d="M215.636,253.745a5.545,5.545,0,0,1-1.983-.776v2.908l1.983,2.447Z" transform="translate(-202.441 -234.463)"/><path class="f" d="M85.978,293.2l-8.19-3.172-3.1,3.821-3.1-3.821L63.415,293.2a5.189,5.189,0,0,0-3.029,4.7v7.664a.7.7,0,0,0,.7.7H88.308a.7.7,0,0,0,.7-.7V297.9A5.189,5.189,0,0,0,85.978,293.2Z" transform="translate(-60.386 -268.814)"/><path class="g" d="M62.4,339.489v-8.556a5.067,5.067,0,0,1,2.321-4.3l-1.274.494a5.189,5.189,0,0,0-3.029,4.7v7.664a.7.7,0,0,0,.7.7H63.1A.7.7,0,0,1,62.4,339.489Z" transform="translate(-60.414 -302.738)"/><path class="h" d="M188.768,95.6a.5.5,0,0,0-.645-.079,13.264,13.264,0,0,1-7.984,2.144.5.5,0,0,0-.541.5V102.6a5.522,5.522,0,0,0,11.043,0V97.813C190.641,97.548,190.653,97.627,188.768,95.6Z" transform="translate(-170.877 -88.458)"/><path class="d" d="M181.581,130.788V125.87a11.575,11.575,0,0,1-1.441-.011.5.5,0,0,0-.541.5v4.426a5.585,5.585,0,0,0,6.513,5.365A5.451,5.451,0,0,1,181.581,130.788Z" transform="translate(-170.877 -116.65)"/><g transform="translate(8.26 21.218)"><path class="g" d="M259.709,295.816l2.315-4.64-2.957-1.145-3.1,3.821L258.989,296A.488.488,0,0,0,259.709,295.816Z" transform="translate(-249.922 -290.031)"/><path class="g" d="M175.6,295.816l-2.315-4.64,2.957-1.145,3.1,3.821L176.325,296A.488.488,0,0,1,175.6,295.816Z" transform="translate(-173.29 -290.031)"/></g><path class="i" d="M228.166,342.269v0h0v0l-2.2,1.559L227,345.389h2.319l1.038-1.562Z" transform="translate(-213.854 -317.227)"/><path class="j" d="M218.649,394.257h5.465l-1.573-9.293h-2.319Z" transform="translate(-207.071 -356.801)"/><path class="k" d="M229.262,343.048l-1.1-.779v0h0v0l-2.2,1.559L227,345.389h2.2l-.852-1.282a.346.346,0,0,1,.088-.474Z" transform="translate(-213.853 -317.227)"/><path class="i" d="M220.222,384.963l-1.573,9.293h2.2l1.573-9.293Z" transform="translate(-207.071 -356.801)"/><g transform="translate(4.599 29.717)"><path class="g" d="M374.617,413.958v-7.18a.558.558,0,0,0-1.116,0v7.18Z" transform="translate(-355.193 -406.22)"/><path class="g" d="M124.361,413.958v-7.18a.558.558,0,1,0-1.116,0v7.18Z" transform="translate(-123.245 -406.22)"/></g><path class="c" d="M266.416,164.435h-4.922a.558.558,0,1,1,0-1.116h4.922a1.442,1.442,0,0,0,1.44-1.44v-2.546a.558.558,0,1,1,1.116,0v2.546A2.559,2.559,0,0,1,266.416,164.435Z" transform="translate(-246.265 -147.16)"/><g transform="translate(4.151)"><path class="l" d="M163.787,8.22a.558.558,0,0,1-.558-.558v-.65a6.532,6.532,0,0,0-6.464-5.9h-.538a6.532,6.532,0,0,0-6.464,5.9v.651a.558.558,0,0,1-1.116,0V6.987q0-.024,0-.049A7.609,7.609,0,0,1,156.226,0h.538a7.609,7.609,0,0,1,7.578,6.938q0,.024,0,.049v.675A.558.558,0,0,1,163.787,8.22Z" transform="translate(-146.34)"/><path class="l" d="M358.39,102.545a2.853,2.853,0,0,0-2.871-2.835v5.67A2.853,2.853,0,0,0,358.39,102.545Z" transform="translate(-338.079 -92.416)"/><path class="l" d="M117.125,102.545a2.835,2.835,0,0,1,2.835-2.835v5.67A2.835,2.835,0,0,1,117.125,102.545Z" transform="translate(-117.125 -92.416)"/></g><g transform="translate(4.151 6.667)"><path class="m" d="M357.007,100.121a2.884,2.884,0,0,0-1.488-.41v5.67a2.884,2.884,0,0,0,1.488-.41Z" transform="translate(-338.079 -99.083)"/><path class="m" d="M118.613,102.545a2.833,2.833,0,0,1,1.347-2.413V99.71a2.835,2.835,0,0,0,0,5.67v-.422A2.833,2.833,0,0,1,118.613,102.545Z" transform="translate(-117.125 -99.083)"/><path class="m" d="M156.358,91.133h.847a.478.478,0,0,1,.478.478V97.58a.478.478,0,0,1-.478.478h-.847a.478.478,0,0,1-.478-.478V91.611A.478.478,0,0,1,156.358,91.133Z" transform="translate(-153.045 -91.133)"/></g><path class="n" d="M157.164,97.58V91.611a.478.478,0,0,1,.26-.425.476.476,0,0,0-.218-.053h-.847a.478.478,0,0,0-.478.478V97.58a.478.478,0,0,0,.478.478h.847a.475.475,0,0,0,.218-.053A.478.478,0,0,1,157.164,97.58Z" transform="translate(-148.895 -84.466)"/><path class="b" d="M243.978,217.932h-.7a.907.907,0,1,1,0-1.815h.7a.907.907,0,1,1,0,1.815Z" transform="translate(-229.056 -200.307)"/><path class="c" d="M243.856,217.024a.907.907,0,0,1,.514-.817.9.9,0,0,0-.393-.091h-.7a.907.907,0,1,0,0,1.815h.7a.9.9,0,0,0,.393-.091A.906.906,0,0,1,243.856,217.024Z" transform="translate(-229.055 -200.307)"/><path class="m" d="M332.824,91.133h-.785a.481.481,0,0,0-.484.478V97.58a.481.481,0,0,0,.484.478h.785a.481.481,0,0,0,.484-.478V91.611A.481.481,0,0,0,332.824,91.133Z" transform="translate(-311.717 -84.466)"/><path class="n" d="M331.838,97.58V91.611a.477.477,0,0,1,.271-.429.486.486,0,0,0-.213-.049h-.858a.481.481,0,0,0-.484.478V97.58a.481.481,0,0,0,.484.478h.858a.486.486,0,0,0,.213-.049A.477.477,0,0,1,331.838,97.58Z" transform="translate(-310.79 -84.466)"/></g></g></svg>